<?xml version="1.0" encoding="iso-8859-1"?>
<!-- Generator: Adobe Illustrator 18.0.0, SVG Export Plug-In . SVG Version: 6.00 Build 0)  -->
<!DOCTYPE svg PUBLIC "-//W3C//DTD SVG 1.1//EN" "http://www.w3.org/Graphics/SVG/1.1/DTD/svg11.dtd">
<svg version="1.1" xmlns="http://www.w3.org/2000/svg" xmlns:xlink="http://www.w3.org/1999/xlink" x="0px" y="0px"
	 viewBox="0 0 2500 400" style="enable-background:new 0 0 2500 400;" xml:space="preserve">
<g id="Capa_1">
	<rect x="338" y="224" style="fill:#FFFFFF;" width="44" height="66"/>
	<rect x="504" y="231.5" style="fill:#FFFFFF;" width="44" height="66"/>
	<rect x="458" y="244.5" style="fill:#FFFFFF;" width="68" height="53"/>
	<rect x="361" y="257" style="fill:#FFFFFF;" width="123" height="49.5"/>
	<rect x="538" y="250" style="fill:#FFFFFF;" width="55" height="76"/>
	<rect x="644.5" y="259.5" style="fill:#FFFFFF;" width="55" height="76"/>
	<rect x="593" y="236" style="fill:#FFFFFF;" width="65" height="90"/>
	<rect x="228" y="236" style="fill:#FFFFFF;" width="132" height="90"/>
	<rect x="171" y="224" style="fill:#FFFFFF;" width="78" height="89"/>
	<rect x="124" y="203" style="fill:#FFFFFF;" width="58" height="115"/>
	<rect x="94" y="236" style="fill:#FFFFFF;" width="40" height="77.412"/>
	<rect x="52" y="211" style="fill:#FFFFFF;" width="52" height="118.037"/>
	<rect x="-24" y="224" style="fill:#FFFFFF;" width="44" height="64"/>
	<rect x="13" y="236" style="fill:#FFFFFF;" width="49" height="77"/>
	<rect x="694" y="243.25" style="fill:#FFFFFF;" width="49" height="77"/>
	<rect x="808.5" y="251.625" style="fill:#FFFFFF;" width="44" height="66"/>
	<rect x="774.5" y="258.125" style="fill:#FFFFFF;" width="68" height="53"/>
	<rect x="672" y="272.75" style="fill:#FFFFFF;" width="123" height="49.5"/>
	<rect x="849" y="243.375" style="fill:#FFFFFF;" width="55" height="76"/>
	<rect x="955.5" y="234.75" style="fill:#FFFFFF;" width="55" height="76"/>
	<rect x="899" y="252.875" style="fill:#FFFFFF;" width="65" height="90"/>
	<rect x="999.5" y="222.625" style="fill:#FFFFFF;" width="49" height="77"/>
	<rect x="1277" y="236.375" style="fill:#FFFFFF;" width="132" height="90"/>
	<rect x="1220" y="244.125" style="fill:#FFFFFF;" width="78" height="89"/>
	<rect x="1173" y="203.625" style="fill:#FFFFFF;" width="58" height="115"/>
	<rect x="1133" y="248.375" style="fill:#FFFFFF;" width="71" height="53.25"/>
	<rect x="1101" y="231.125" style="fill:#FFFFFF;" width="52" height="60"/>
	<rect x="1025" y="252.625" style="fill:#FFFFFF;" width="44" height="64"/>
	<rect x="1062" y="256.125" style="fill:#FFFFFF;" width="49" height="77"/>
	<rect x="1337" y="212.375" style="fill:#FFFFFF;" width="44" height="66"/>
	<rect x="1503" y="219.875" style="fill:#FFFFFF;" width="44" height="66"/>
	<rect x="1457" y="232.875" style="fill:#FFFFFF;" width="68" height="53"/>
	<rect x="1360" y="245.375" style="fill:#FFFFFF;" width="123" height="49.5"/>
	<rect x="1537" y="238.375" style="fill:#FFFFFF;" width="55" height="76"/>
	<rect x="1587.5" y="224.375" style="fill:#FFFFFF;" width="65" height="90"/>
	<rect x="1789" y="195.375" style="fill:#FFFFFF;" width="58" height="115"/>
	<rect x="1759" y="224" style="fill:#FFFFFF;" width="40" height="104.286"/>
	<rect x="1717" y="215.375" style="fill:#FFFFFF;" width="52" height="100.037"/>
	<rect x="1641" y="216.375" style="fill:#FFFFFF;" width="44" height="81.912"/>
	<rect x="1678" y="241.875" style="fill:#FFFFFF;" width="49" height="77"/>
	<rect x="1834" y="183" style="fill:#FFFFFF;" width="70" height="111.875"/>
	<rect x="1888" y="212.375" style="fill:#FFFFFF;" width="96" height="98"/>
	<rect x="1978" y="183" style="fill:#FFFFFF;" width="117" height="105.625"/>
	<rect x="2025" y="164" style="fill:#FFFFFF;" width="51" height="60.375"/>
	<rect x="2090" y="212.375" style="fill:#FFFFFF;" width="87" height="73.5"/>
	<rect x="2170" y="188" style="fill:#FFFFFF;" width="97" height="122.375"/>
	<rect x="2253" y="170" style="fill:#FFFFFF;" width="52" height="144.375"/>
	<rect x="2296" y="201" style="fill:#FFFFFF;" width="67" height="125.662"/>
	<rect x="2353" y="194.188" style="fill:#FFFFFF;" width="91" height="98.688"/>
	<rect x="2425" y="224.375" style="fill:#FFFFFF;" width="100" height="86"/>
	<rect x="-630.262" y="281.375" style="fill:#FFFFFF;" width="3575.285" height="401.895"/>
</g>
<g id="Capa_2">
	<path style="fill:#FFFFFF;" d="M555.327,275.22c0,0-3.519-63.883,0-113.142c3.518-49.259,19.352-69.491,29.028-69.491
		s25.509,19.902,28.148,73.009c2.639,53.108-2.199,112.372-6.157,117.76C602.387,288.745,555.327,275.22,555.327,275.22z"/>
	<circle style="fill:#FFFFFF;" cx="677.242" cy="153.982" r="4.234"/>
	<rect x="891.5" y="79.717" style="fill:#FFFFFF;" width="49" height="231.908"/>
	<rect x="969.5" y="79.717" style="fill:#FFFFFF;" width="49" height="231.908"/>
	<path style="fill:#FFFFFF;" d="M1524.129,167.859h-8.9c0,0-0.162,1.456,0,4.045c0.162,2.589,3.236,5.178,3.236,5.178
		s-1.618,14.725-2.104,22.654c-0.485,7.929,2.104,35.438,2.104,35.438h3.075"/>
	<path style="fill:#FFFFFF;" d="M1520.569,167.859h7.794c0,0,0.142,1.456,0,4.045s-2.834,5.178-2.834,5.178
		s1.417,14.725,1.842,22.654c0.425,7.929-1.842,35.438-1.842,35.438h-3.989"/>
	<path style="fill:#FFFFFF;" d="M1519.598,169.235l0.773-4.774h-2.877c0,0-0.324-3.479,0-5.259c0.324-1.78,0.971-3.641,0.971-3.641
		s-2.184,0.405-3.074,0.405s-2.104-0.405-2.104-0.405s-0.485,0.405-1.133,0.405s-1.133-0.971-0.728-1.375s0.566-0.485,0.971-0.485
		s0.728,0.324,0.728,0.324s1.294-0.324,2.346-0.324c1.052,0,3.236,0.324,3.236,0.324l1.294-1.214c0,0-1.618-1.618-1.375-2.67
		c0.243-1.052,1.133-2.346,2.67-2.104c1.537,0.243,2.023,1.214,2.023,1.78s-0.243,2.185-0.566,2.508
		c-0.324,0.324-0.728,0.566-0.728,0.566s1.78,0.566,2.427,2.104c0.647,1.537,0.773,4.45,0.773,4.45l-0.935,0.081
		c0,0,0.656,1.456,0.935,2.508s0,1.537,0,1.537l-2.229,0.243l2.994,4.693L1519.598,169.235z"/>
	<path style="fill:#FFFFFF;" d="M1572.85,244.843c0,0,72.333-24.708,78.333-32.042c6-7.333-8-51.333-13.333-64.667
		c2.667-6.667,8-11.5,8-11.5h6.8c0,0-7.467,4.846-10.134,10.833c-2.667,5.988,16,38.792,18,49.063c2,10.271,2.667,22.354,0,24.313
		c-2.667,1.958,1.759,12,1.759,12l4.241,24.75"/>
	<path style="fill:#FFFFFF;" d="M1641.013,131.197v5.438h26c0,0,5.25,0,5-2.719s-5.5-2.719-5.5-2.719H1641.013z"/>
	<path style="fill:#FFFFFF;" d="M1656.017,128.447c0-14,2-29.25,2-29.25s1,16.5,1.25,29.75s-1.75,23.25-1.75,23.25
		S1656.017,142.447,1656.017,128.447z"/>
	<rect x="1853.617" y="131.52" style="fill:#FFFFFF;" width="4.682" height="79.554"/>
	<rect x="1835.292" y="59.559" style="fill:#FFFFFF;" width="41.333" height="77.617"/>
	<rect x="1854.667" y="32.12" style="fill:#FFFFFF;" width="2.583" height="51.76"/>
	<polygon style="fill:#FFFFFF;" points="663.56,284.078 670.313,221.947 705.116,195.828 741.525,221.947 748.892,283.328 	"/>
	<path style="fill:#FFFFFF;" d="M669.556,275.375c0,0,0.03-23.29,0.025-36.291C669.556,179.5,677.278,159,677.278,159
		S685,179,685,239c0,12.355,0,30.625,0,30.625"/>
	<polygon style="fill:#FFFFFF;" points="676.247,155.25 674.997,159 674.997,163.75 676.247,169.748 678.747,169.748 
		679.559,163.625 679.559,159 678.372,154.938 	"/>
	<circle style="fill:#FFFFFF;" cx="692.242" cy="125.982" r="4.234"/>
	<path style="fill:#FFFFFF;" d="M684.556,247.375c0,0,0.03-23.29,0.025-36.291C684.556,151.5,692.278,131,692.278,131
		S700,151,700,211c0,12.355,0,30.625,0,30.625"/>
	<polygon style="fill:#FFFFFF;" points="691.247,127.25 689.997,131 689.997,135.75 691.247,141.748 693.747,141.748 
		694.559,135.625 694.559,131 693.372,126.938 	"/>
	<circle style="fill:#FFFFFF;" cx="719.242" cy="125.982" r="4.234"/>
	<path style="fill:#FFFFFF;" d="M711.556,247.375c0,0,0.03-23.29,0.025-36.291C711.556,151.5,719.278,131,719.278,131
		S727,151,727,211c0,12.355,0,30.625,0,30.625"/>
	<polygon style="fill:#FFFFFF;" points="718.247,127.25 716.997,131 716.997,135.75 718.247,141.748 720.747,141.748 
		721.559,135.625 721.559,131 720.372,126.938 	"/>
	<circle style="fill:#FFFFFF;" cx="734.242" cy="150.982" r="4.234"/>
	<path style="fill:#FFFFFF;" d="M726.556,272.375c0,0,0.03-23.29,0.025-36.291C726.556,176.5,734.278,156,734.278,156
		S742,176,742,236c0,12.355,0,30.625,0,30.625"/>
	<polygon style="fill:#FFFFFF;" points="733.247,152.25 731.997,156 731.997,160.75 733.247,166.748 735.747,166.748 
		736.559,160.625 736.559,156 735.372,151.938 	"/>
	<path style="fill:#FFFFFF;" d="M696.476,208.067c0.857-1.379,3.429-16.134,8.571-16.134c5.143,0,9.428,16.134,9.428,16.134"/>
	<path style="fill:#FFFFFF;" d="M711.667,232"/>
</g>
</svg>
