<?xml version="1.0" encoding="UTF-8" standalone="no"?>
<!-- Created with Inkscape (http://www.inkscape.org/) -->

<svg
   xmlns:dc="http://purl.org/dc/elements/1.1/"
   xmlns:cc="http://creativecommons.org/ns#"
   xmlns:rdf="http://www.w3.org/1999/02/22-rdf-syntax-ns#"
   xmlns:svg="http://www.w3.org/2000/svg"
   xmlns="http://www.w3.org/2000/svg"
   xmlns:sodipodi="http://sodipodi.sourceforge.net/DTD/sodipodi-0.dtd"
   xmlns:inkscape="http://www.inkscape.org/namespaces/inkscape"
   width="744.09003"
   height="500"
   id="svg2"
   version="1.1"
   inkscape:version="0.48.5 r10040"
   sodipodi:docname="New document 1">
  <defs
     id="defs4" />
  <sodipodi:namedview
     id="base"
     pagecolor="#ffffff"
     bordercolor="#666666"
     borderopacity="1.0"
     inkscape:pageopacity="0.0"
     inkscape:pageshadow="2"
     inkscape:zoom="0.81015701"
     inkscape:cx="339.38574"
     inkscape:cy="285.79957"
     inkscape:document-units="px"
     inkscape:current-layer="layer1"
     showgrid="false"
     inkscape:window-width="1366"
     inkscape:window-height="705"
     inkscape:window-x="-8"
     inkscape:window-y="-8"
     inkscape:window-maximized="1" />
  <metadata
     id="metadata7">
    <rdf:RDF>
      <cc:Work
         rdf:about="">
        <dc:format>image/svg+xml</dc:format>
        <dc:type
           rdf:resource="http://purl.org/dc/dcmitype/StillImage" />
        <dc:title></dc:title>
      </cc:Work>
    </rdf:RDF>
  </metadata>
  <g
     inkscape:groupmode="layer"
     id="layer2"
     inkscape:label="Text"
     style="display:inline"
     transform="translate(0,-552.36218)">
    <text
       xml:space="preserve"
       style="font-size:235.33052063px;font-style:normal;font-weight:normal;line-height:125%;letter-spacing:0px;word-spacing:0px;fill:#000000;fill-opacity:1;stroke:none;display:inline;font-family:Sans"
       x="90.906288"
       y="880.61896"
       id="text2985"
       sodipodi:linespacing="125%"
       transform="scale(1.0446621,0.95724732)"><tspan
         sodipodi:role="line"
         id="tspan2987"
         x="90.906288"
         y="880.61896"
         style="font-style:normal;font-variant:normal;font-weight:bold;font-stretch:normal;letter-spacing:-21.06001472px;font-family:Arial;-inkscape-font-specification:Arial Bold"
         dx="0">BCN</tspan></text>
    <text
       xml:space="preserve"
       style="font-size:72.85684967px;font-style:normal;font-weight:normal;line-height:125%;letter-spacing:0px;word-spacing:0px;fill:#000000;fill-opacity:1;stroke:none;display:inline;font-family:Sans"
       x="110.70845"
       y="653.64471"
       id="text2989"
       sodipodi:linespacing="125%"
       transform="scale(0.97482952,1.0258204)"><tspan
         sodipodi:role="line"
         id="tspan2991"
         x="110.70845"
         y="653.64471"
         style="font-style:normal;font-variant:normal;font-weight:bold;font-stretch:normal;letter-spacing:-1.39000034px;font-family:Arial;-inkscape-font-specification:Arial Bold">INTERACTIVE</tspan></text>
  </g>
  <g
     inkscape:label="Layer 1"
     inkscape:groupmode="layer"
     id="layer1"
     style="display:inline"
     transform="translate(0,-552.36218)">
    <path
       style="display:inline"
       d="m 400.90508,983.92766 c -35.14381,-9.67026 -79.533,-36.04583 -95.11983,-56.51915 -11.01222,-14.46457 -19.15749,-32.36726 -20.70109,-45.49945 -1.64076,-13.95874 4.65378,-46.77862 8.7733,-45.7442 1.51904,0.38144 9.83332,3.23232 18.47618,6.3353 28.51804,10.23862 64.82145,5.39206 83.6873,-11.17237 9.7698,-8.57799 23.91784,-33.48941 20.79395,-36.6133 -1.90819,-1.90819 -33.9039,-12.28394 -34.72984,-11.26239 -0.26266,0.32487 -3.21966,6.02847 -6.57109,12.67466 -9.66346,19.16349 -32.34398,26.52359 -51.38744,16.67584 -15.16304,-7.84112 -16.31564,-11.76348 -7.28568,-24.79371 4.45844,-6.43353 13.50822,-16.12383 20.11064,-21.53402 6.60243,-5.41019 16.88145,-17.4921 22.84227,-26.84869 5.96082,-9.35658 11.83918,-17.01198 13.06302,-17.01198 1.22384,0 3.03189,3.21429 4.0179,7.14286 0.98601,3.92857 2.61764,7.09706 3.62586,7.04108 4.47082,-0.24823 35.39525,-8.22226 36.61415,-9.44116 1.89987,-1.89986 -7.17567,-19.21897 -13.9673,-26.65422 l -5.66071,-6.19715 13.85206,-10.16059 c 9.03952,-6.63055 17.07815,-10.18519 23.13778,-10.23141 6.0276,-0.046 9.28571,-1.47651 9.28571,-4.07705 0,-2.20342 3.85715,-5.35082 8.57143,-6.99423 8.00326,-2.78995 8.57143,-2.52439 8.57143,4.00622 0,5.55575 1.46905,6.99423 7.14286,6.99423 5.96754,0 7.14285,-1.35555 7.14285,-8.2382 0,-5.77506 1.67182,-8.67539 5.59158,-9.70043 4.3769,-1.14458 6.28703,0.64502 8.79301,8.2382 2.42937,7.36107 4.81713,9.70043 9.90113,9.70043 5.12341,0 7.47619,-2.35278 10,-10 2.56376,-7.76828 4.84493,-10 10.22158,-10 6.00527,0 6.92128,1.32346 6.92128,10 l 0,10 19.76189,0 c 12.8495,0 20.16235,-1.20132 20.90672,-3.43446 1.924,-5.77198 27.68132,11.31735 47.9028,31.78229 19.94589,20.18603 33.36429,40.83689 45.11189,69.42705 15.8358,38.5396 6.33309,81.74886 -25.02674,113.79776 -24.66252,25.20441 -47.96595,28.7956 -83.73804,12.9045 -18.75942,-8.33354 -32.86373,-9.28235 -44.96446,-3.02482 -8.12246,4.20029 -12.59695,12.12797 -34.18632,60.56965 -10.17363,22.82734 -19.54991,30.29485 -39.33627,31.32851 -9.03731,0.47212 -23.5029,-1.0874 -32.14576,-3.4656 z m 60.64682,-187.26113 0.78175,-48.80481 32.85714,48.71027 32.85715,48.71028 19.2857,0.0945 19.28572,0.0945 0,-81.42857 0,-81.42858 -18.57143,0 -18.57142,0 -0.01,50.71429 -0.01,50.71429 -33.56157,-50.64452 -33.56157,-50.64452 -19.28571,-0.0698 -19.28572,-0.0698 0,81.42858 0,81.42857 18.50396,0 18.50396,0 0.78176,-48.80482 0,0 z"
       id="path2997"
       inkscape:connector-curvature="0" />
    <path
       style="fill:#ffffff;display:inline"
       d="m 417.82092,988.9294 c -36.72807,-5.10322 -78.71574,-25.76457 -104.50584,-51.42539 -23.12007,-23.00417 -32.4969,-46.60681 -29.45922,-74.15247 3.76766,-34.16511 20.30115,-67.2841 46.06761,-92.28011 7.18592,-6.97107 12.41786,-11.44027 12.86696,-10.99117 0.15297,0.15296 -2.93572,3.17773 -6.86375,6.7217 -15.40813,13.90163 -24.91935,26.82943 -24.9206,33.87247 -4.5e-4,2.49943 0.28648,3.01961 3.23962,5.87318 3.98282,3.84853 11.79699,7.99108 18.12812,9.61031 11.82081,3.02326 24.29404,0.23613 33.59919,-7.50769 4.77956,-3.9776 7.00802,-7.06818 12.11415,-16.80082 l 4.16261,-7.93421 2.48781,0.35111 c 2.79784,0.39487 19.38359,5.63689 26.82046,8.47676 2.68208,1.02419 5.02259,2.24284 5.20113,2.70811 1.35105,3.52077 -9.40559,23.01851 -17.79037,32.24723 -14.71927,16.20081 -45.98508,23.61026 -74.79735,17.72566 -2.65878,-0.54303 -10.51143,-2.91085 -17.45034,-5.26184 -6.93892,-2.35097 -12.97228,-4.2745 -13.40748,-4.2745 -3.58763,0 -9.43027,28.96823 -8.65112,42.89292 0.70584,12.61461 7.02727,28.64248 17.28219,43.81867 12.59295,18.63622 42.64987,39.67042 77.06121,53.92838 20.47048,8.48172 37.24577,11.87634 54.19823,10.96748 13.04575,-0.69941 18.9105,-3.09777 26.53806,-10.8526 4.73316,-4.81213 5.70494,-6.236 9.94244,-14.56782 2.5831,-5.07891 6.32842,-12.92608 8.32294,-17.43815 1.99452,-4.51207 3.70504,-7.96784 3.80116,-7.67948 0.0961,0.28835 -1.48914,4.74176 -3.52281,9.89645 -10.26607,26.02125 -17.80403,35.91307 -30.82089,40.44528 -4.95087,1.72379 -6.00436,1.86083 -15.49523,2.01555 -5.60077,0.0913 -11.96777,-0.082 -14.14889,-0.38501 l 0,0 z"
       id="path3011"
       inkscape:connector-curvature="0" />
    <path
       style="fill:#ffffff;display:inline"
       d="m 423.94667,763.98809 0,-81.15711 18.99094,0 18.99094,0 33.62232,50.7238 33.62232,50.72381 0.15788,-50.72381 0.15787,-50.7238 18.51134,0 18.51134,0 0,81.15711 0,81.1571 -19.04523,0 -19.04521,0 -32.95087,-48.83822 -32.95087,-48.83823 -0.3852,5.17385 c -0.21186,2.84562 -0.56114,19.89322 -0.77618,37.88356 -0.21505,17.99034 -0.56607,37.63931 -0.78006,43.66438 l -0.38907,10.95466 -18.12113,0 -18.12113,0 0,-81.1571 z"
       id="path3013"
       inkscape:connector-curvature="0" />
    <path
       style="fill:#ffffff;display:inline"
       d="m 353.58994,746.72187 c 0,-0.20187 1.73577,-3.1522 3.85728,-6.55627 4.63704,-7.44042 11.92469,-17.36677 18.30546,-24.9335 5.1185,-6.06984 21.52669,-22.52649 22.46015,-22.52649 0.31968,0 0.22984,0.42341 -0.19965,0.94091 -0.65473,0.7889 -0.36748,1.41208 1.77797,3.85728 6.69805,7.63384 11.79453,15.31852 15.03184,22.66562 3.11611,7.07204 3.32844,6.59813 -3.95176,8.82016 -6.21031,1.89549 -23.83341,6.34294 -28.40123,7.16748 -2.62972,0.47469 -2.95107,0.0588 -5.43885,-7.03876 -1.63532,-4.66554 -2.89232,-6.78881 -4.01906,-6.78881 -1.27825,0 -5.28416,4.93353 -12.08768,14.88674 -5.82952,8.52831 -7.33447,10.47875 -7.33447,9.50564 z"
       id="path3015"
       inkscape:connector-curvature="0" />
    <path
       style="fill:#ffffff;display:inline"
       d="m 400.80301,690.46029 c 1.35776,-1.20666 5.2459,-4.22052 8.6403,-6.69747 29.97754,-21.87507 65.93165,-32.76252 101.84979,-30.84164 7.5318,0.40279 8.73538,0.58636 6.51106,0.99306 -3.89454,0.71209 -5.82105,2.88917 -8.46264,9.56336 -1.25217,3.1637 -3.01692,6.63888 -3.92168,7.72263 -1.44269,1.72812 -2.09824,2.00324 -5.33019,2.23702 -5.12394,0.37064 -6.69669,-1.04077 -10.07133,-9.03811 -1.41463,-3.35243 -3.12294,-6.68664 -3.79626,-7.40936 -2.4771,-2.65886 -8.58399,-1.09811 -10.11156,2.58423 -0.44828,1.08064 -1.01785,4.15316 -1.26571,6.82783 -0.58987,6.36529 -1.35119,7.17167 -6.77087,7.17167 -5.1279,0 -6.22644,-0.9681 -6.77051,-5.9666 -0.66897,-6.14596 -0.76953,-6.37668 -2.77922,-6.37668 -2.55291,0 -9.47432,2.62154 -11.99253,4.54227 -1.16509,0.88866 -2.43177,2.56544 -2.81485,3.72618 -0.87925,2.66414 -3.21522,3.7907 -8.96976,4.32581 -8.60942,0.80057 -15.35755,4.06742 -28.60691,13.84894 -7.13123,5.26472 -9.54133,6.52319 -5.33713,2.78686 z"
       id="path3017"
       inkscape:connector-curvature="0" />
    <path
       style="fill:#ffffff;display:inline"
       d="m 400.80301,690.46029 c 1.35776,-1.20666 5.2459,-4.22052 8.6403,-6.69747 29.97754,-21.87507 65.93165,-32.76252 101.84979,-30.84164 7.5318,0.40279 8.73538,0.58636 6.51106,0.99306 -3.89454,0.71209 -5.82105,2.88917 -8.46264,9.56336 -1.25217,3.1637 -3.01692,6.63888 -3.92168,7.72263 -1.44269,1.72812 -2.09824,2.00324 -5.33019,2.23702 -5.12394,0.37064 -6.69669,-1.04077 -10.07133,-9.03811 -1.41463,-3.35243 -3.12294,-6.68664 -3.79626,-7.40936 -2.4771,-2.65886 -8.58399,-1.09811 -10.11156,2.58423 -0.44828,1.08064 -1.01785,4.15316 -1.26571,6.82783 -0.58987,6.36529 -1.35119,7.17167 -6.77087,7.17167 -5.1279,0 -6.22644,-0.9681 -6.77051,-5.9666 -0.66897,-6.14596 -0.76953,-6.37668 -2.77922,-6.37668 -2.55291,0 -9.47432,2.62154 -11.99253,4.54227 -1.16509,0.88866 -2.43177,2.56544 -2.81485,3.72618 -0.88619,2.68517 -3.22328,3.79746 -9.14087,4.35039 -8.3758,0.78263 -14.19319,3.56269 -27.30545,13.04894 -8.32756,6.0247 -10.72263,7.3439 -6.46748,3.56228 z"
       id="path3019"
       inkscape:connector-curvature="0" />
    <path
       style="fill:#ffffff;display:inline"
       d="m 582.55789,909.55743 c -4.65823,-0.58149 -12.20519,-2.28585 -16.63844,-3.75753 -5.20448,-1.7277 -15.61868,-6.38539 -15.20412,-6.79995 0.14752,-0.14752 3.13716,0.88626 6.64364,2.29729 10.64928,4.28535 19.28252,6.27503 28.83384,6.64526 12.76472,0.49479 21.07492,-1.50788 31.23487,-7.52727 6.0265,-3.57048 8.88856,-5.83756 15.97702,-12.65562 22.13071,-21.28649 34.31728,-48.70644 34.43721,-77.4842 0.0783,-18.79871 -3.31815,-31.65325 -14.35019,-54.31046 -11.26479,-23.13526 -24.10712,-40.50572 -43.82711,-59.28035 -15.13438,-14.40884 -34.24767,-27.43124 -40.2615,-27.43124 -0.80622,0 -1.96712,0.55389 -2.57977,1.23087 -2.02552,2.23817 -5.03497,2.6264 -22.68392,2.9263 l -17.12631,0.29102 -0.0147,-6.69854 c -0.0168,-7.6597 -0.66959,-11.24238 -2.26572,-12.43546 -1.308,-0.97771 -0.62555,-0.88973 11.22933,1.44761 22.15488,4.36814 42.76627,13.72856 62.36971,28.32449 10.30333,7.67145 27.16248,24.66201 35.24645,35.52119 20.96605,28.16364 34.6117,60.21989 36.38738,85.48089 0.99347,14.13334 -3.68748,33.71587 -12.42013,51.95898 -13.40703,28.00825 -33.52783,46.20895 -56.48715,51.0967 -4.35652,0.92745 -15.01146,1.59554 -18.50037,1.16002 l 0,0 z"
       id="path3021"
       inkscape:connector-curvature="0" />
  </g>
</svg>
