<?xml version="1.0" encoding="iso-8859-1"?>
<!-- Generator: Adobe Illustrator 18.0.0, SVG Export Plug-In . SVG Version: 6.00 Build 0)  -->
<!DOCTYPE svg PUBLIC "-//W3C//DTD SVG 1.1//EN" "http://www.w3.org/Graphics/SVG/1.1/DTD/svg11.dtd">
<svg version="1.1" xmlns="http://www.w3.org/2000/svg" xmlns:xlink="http://www.w3.org/1999/xlink" x="0px" y="0px"
	 viewBox="0 0 500 400" style="enable-background:new 0 0 500 400;" xml:space="preserve">
<g id="Quadrat_Blanc">
	<rect x="-1064.734" y="-4.333" width="518.667" height="408.667"/>
	<g>
		<path style="fill:#FFFFFF;" d="M-483.748,83.009V32.902h10.111v50.107H-483.748z"/>
		<path style="fill:#FFFFFF;" d="M-467.399,83.009V32.902h9.838l20.496,33.462V32.902h9.394v50.107h-10.146l-20.188-32.676v32.676
			H-467.399z"/>
		<path style="fill:#FFFFFF;" d="M-409.204,83.009V41.378h-14.86v-8.477h39.796v8.477h-14.825v41.631H-409.204z"/>
		<path style="fill:#FFFFFF;" d="M-381.24,83.009V32.902h37.132v8.477h-27.021v11.108h25.142v8.442h-25.142v13.638h27.977v8.442
			H-381.24z"/>
		<path style="fill:#FFFFFF;" d="M-338.042,83.009V32.902h21.282c5.351,0,9.24,0.45,11.666,1.35c2.425,0.9,4.367,2.501,5.824,4.802
			c1.457,2.302,2.186,4.934,2.186,7.896c0,3.76-1.105,6.865-3.313,9.314c-2.209,2.45-5.511,3.994-9.906,4.631
			c2.186,1.276,3.991,2.678,5.415,4.204c1.423,1.527,3.342,4.238,5.756,8.135l6.114,9.775h-12.092l-7.311-10.903
			c-2.596-3.896-4.372-6.352-5.329-7.366c-0.957-1.014-1.97-1.709-3.041-2.085s-2.767-0.564-5.09-0.564h-2.049v20.918H-338.042z
			 M-327.931,54.093h7.481c4.851,0,7.879-0.205,9.086-0.615s2.152-1.116,2.835-2.119c0.683-1.002,1.025-2.256,1.025-3.76
			c0-1.686-0.45-3.047-1.35-4.084c-0.9-1.037-2.169-1.692-3.809-1.965c-0.82-0.114-3.279-0.171-7.378-0.171h-7.891V54.093z"/>
		<path style="fill:#FFFFFF;" d="M-245.893,83.009h-10.999l-4.373-11.382h-20.018l-4.133,11.382h-10.726l19.505-50.107h10.692
			L-245.893,83.009z M-264.51,63.185l-6.9-18.594l-6.763,18.594H-264.51z"/>
		<path style="fill:#FFFFFF;" d="M-211.985,64.586l9.804,3.11c-1.503,5.469-4.003,9.531-7.498,12.185
			c-3.496,2.655-7.931,3.982-13.306,3.982c-6.649,0-12.115-2.273-16.396-6.819s-6.422-10.761-6.422-18.645
			c0-8.34,2.152-14.817,6.456-19.431c4.305-4.614,9.963-6.921,16.978-6.921c6.126,0,11.103,1.812,14.928,5.435
			c2.277,2.142,3.985,5.218,5.124,9.229l-10.009,2.393c-0.593-2.598-1.827-4.648-3.706-6.152s-4.162-2.256-6.85-2.256
			c-3.712,0-6.724,1.333-9.035,3.999s-3.467,6.984-3.467,12.954c0,6.335,1.139,10.847,3.416,13.535
			c2.276,2.689,5.237,4.033,8.882,4.033c2.687,0,4.998-0.854,6.934-2.563S-212.828,68.255-211.985,64.586z"/>
		<path style="fill:#FFFFFF;" d="M-185.731,83.009V41.378h-14.859v-8.477h39.796v8.477h-14.825v41.631H-185.731z"/>
		<path style="fill:#FFFFFF;" d="M-158.074,83.009V32.902h10.111v50.107H-158.074z"/>
		<path style="fill:#FFFFFF;" d="M-129.053,83.009l-17.899-50.107h10.966l12.673,37.085l12.264-37.085h10.726l-17.934,50.107
			H-129.053z"/>
		<path style="fill:#FFFFFF;" d="M-98.663,83.009V32.902h37.132v8.477h-27.021v11.108h25.142v8.442h-25.142v13.638h27.977v8.442
			H-98.663z"/>
	</g>
	<g>
		<path style="fill:#FFFFFF;" d="M-484.606,103.063h67.16c13.294,0,23.208,0.555,29.74,1.662c6.533,1.108,12.377,3.42,17.535,6.934
			c5.157,3.515,9.455,8.194,12.893,14.04c3.438,5.845,5.157,12.397,5.157,19.655c0,7.87-2.12,15.091-6.361,21.661
			c-4.24,6.571-9.99,11.5-17.248,14.784c10.238,2.979,18.108,8.062,23.609,15.242c5.501,7.183,8.252,15.626,8.252,25.329
			c0,7.642-1.776,15.071-5.33,22.291c-3.553,7.221-8.405,12.99-14.555,17.306c-6.151,4.317-13.735,6.974-22.75,7.965
			c-5.655,0.613-19.293,0.994-40.915,1.146h-57.189V103.063z M-450.682,131.027v38.852h22.233c13.217,0,21.432-0.19,24.641-0.573
			c5.806-0.688,10.372-2.693,13.695-6.017c3.324-3.324,4.985-7.697,4.985-13.123c0-5.195-1.433-9.416-4.297-12.664
			c-2.865-3.247-7.125-5.214-12.779-5.902c-3.363-0.381-13.028-0.573-28.996-0.573H-450.682z M-450.682,197.843v44.926h31.402
			c12.224,0,19.979-0.344,23.265-1.031c5.043-0.917,9.149-3.152,12.32-6.705c3.17-3.553,4.756-8.309,4.756-14.269
			c0-5.043-1.223-9.32-3.667-12.836c-2.446-3.514-5.979-6.075-10.601-7.679c-4.624-1.604-14.652-2.406-30.084-2.406H-450.682z"/>
		<path style="fill:#FFFFFF;" d="M-232.362,209.303l32.893,10.43c-5.043,18.337-13.428,31.957-25.156,40.857
			c-11.729,8.901-26.607,13.352-44.639,13.352c-22.311,0-40.648-7.621-55.011-22.864c-14.365-15.242-21.546-36.081-21.546-62.518
			c0-27.964,7.22-49.682,21.661-65.154c14.44-15.472,33.426-23.208,56.959-23.208c20.553,0,37.248,6.074,50.084,18.222
			c7.639,7.183,13.369,17.498,17.189,30.944l-33.578,8.022c-1.988-8.71-6.133-15.586-12.436-20.629
			c-6.303-5.043-13.965-7.564-22.979-7.564c-12.455,0-22.56,4.47-30.313,13.409c-7.756,8.939-11.633,23.419-11.633,43.436
			c0,21.242,3.82,36.371,11.461,45.384c7.639,9.017,17.572,13.524,29.798,13.524c9.014,0,16.77-2.865,23.266-8.596
			C-239.85,230.62-235.188,221.606-232.362,209.303z"/>
		<path style="fill:#FFFFFF;" d="M-194.661,271.077V103.063h33.007l68.765,112.2v-112.2h31.517v168.014h-34.038l-67.732-109.565
			v109.565H-194.661z"/>
	</g>
	<rect x="-189.577" y="306.854" style="fill:#FED966;" width="160.744" height="34.292"/>
	<rect x="-511.167" y="306.854" style="fill:#9BC1E5;" width="160.744" height="34.292"/>
	<rect x="-350.321" y="306.854" style="fill:#F3B083;" width="160.744" height="34.292"/>
</g>
<g id="Quadrat_Negre">
	<g>
		<path style="fill:#1D1D1B;" d="M39.242,83.009V32.902h10.111v50.107H39.242z"/>
		<path style="fill:#1D1D1B;" d="M55.591,83.009V32.902h9.838l20.496,33.462V32.902h9.394v50.107H85.174L64.985,50.333v32.676
			H55.591z"/>
		<path style="fill:#1D1D1B;" d="M113.786,83.009V41.378h-14.86v-8.477h39.796v8.477h-14.825v41.631H113.786z"/>
		<path style="fill:#1D1D1B;" d="M141.749,83.009V32.902h37.132v8.477h-27.021v11.108h25.142v8.442h-25.142v13.638h27.977v8.442
			H141.749z"/>
		<path style="fill:#1D1D1B;" d="M184.948,83.009V32.902h21.282c5.351,0,9.24,0.45,11.666,1.35c2.425,0.9,4.367,2.501,5.824,4.802
			c1.457,2.302,2.186,4.934,2.186,7.896c0,3.76-1.105,6.865-3.313,9.314c-2.209,2.45-5.511,3.994-9.906,4.631
			c2.186,1.276,3.991,2.678,5.415,4.204c1.423,1.527,3.342,4.238,5.756,8.135l6.114,9.775h-12.092l-7.311-10.903
			c-2.596-3.896-4.372-6.352-5.329-7.366c-0.957-1.014-1.97-1.709-3.041-2.085s-2.767-0.564-5.09-0.564h-2.049v20.918H184.948z
			 M195.059,54.093h7.481c4.851,0,7.879-0.205,9.086-0.615s2.152-1.116,2.835-2.119c0.683-1.002,1.025-2.256,1.025-3.76
			c0-1.686-0.45-3.047-1.35-4.084c-0.9-1.037-2.169-1.692-3.809-1.965c-0.82-0.114-3.279-0.171-7.378-0.171h-7.891V54.093z"/>
		<path style="fill:#1D1D1B;" d="M277.097,83.009h-10.999l-4.373-11.382h-20.018l-4.133,11.382h-10.726l19.505-50.107h10.692
			L277.097,83.009z M258.48,63.185l-6.9-18.594l-6.763,18.594H258.48z"/>
		<path style="fill:#1D1D1B;" d="M311.004,64.586l9.804,3.11c-1.503,5.469-4.003,9.531-7.498,12.185
			c-3.496,2.655-7.931,3.982-13.306,3.982c-6.649,0-12.115-2.273-16.396-6.819s-6.422-10.761-6.422-18.645
			c0-8.34,2.152-14.817,6.456-19.431c4.305-4.614,9.963-6.921,16.978-6.921c6.126,0,11.103,1.812,14.928,5.435
			c2.277,2.142,3.985,5.218,5.124,9.229l-10.009,2.393c-0.593-2.598-1.827-4.648-3.706-6.152s-4.162-2.256-6.85-2.256
			c-3.712,0-6.724,1.333-9.035,3.999s-3.467,6.984-3.467,12.954c0,6.335,1.139,10.847,3.416,13.535
			c2.276,2.689,5.237,4.033,8.882,4.033c2.687,0,4.998-0.854,6.934-2.563S310.161,68.255,311.004,64.586z"/>
		<path style="fill:#1D1D1B;" d="M337.259,83.009V41.378H322.4v-8.477h39.796v8.477H347.37v41.631H337.259z"/>
		<path style="fill:#1D1D1B;" d="M364.915,83.009V32.902h10.111v50.107H364.915z"/>
		<path style="fill:#1D1D1B;" d="M393.937,83.009l-17.899-50.107h10.966l12.673,37.085l12.264-37.085h10.726l-17.934,50.107H393.937
			z"/>
		<path style="fill:#1D1D1B;" d="M424.326,83.009V32.902h37.132v8.477h-27.021v11.108h25.142v8.442h-25.142v13.638h27.977v8.442
			H424.326z"/>
	</g>
	<g>
		<path style="fill:#1D1D1B;" d="M38.383,103.063h67.16c13.294,0,23.208,0.555,29.74,1.662c6.533,1.108,12.377,3.42,17.535,6.934
			c5.157,3.515,9.455,8.194,12.893,14.04c3.438,5.845,5.157,12.397,5.157,19.655c0,7.87-2.12,15.091-6.361,21.661
			c-4.24,6.571-9.99,11.5-17.248,14.784c10.238,2.979,18.108,8.062,23.609,15.242c5.501,7.183,8.252,15.626,8.252,25.329
			c0,7.642-1.776,15.071-5.33,22.291c-3.553,7.221-8.405,12.99-14.555,17.306c-6.151,4.317-13.735,6.974-22.75,7.965
			c-5.655,0.613-19.293,0.994-40.915,1.146H38.383V103.063z M72.307,131.027v38.852h22.233c13.217,0,21.432-0.19,24.641-0.573
			c5.806-0.688,10.372-2.693,13.695-6.017c3.324-3.324,4.985-7.697,4.985-13.123c0-5.195-1.433-9.416-4.297-12.664
			c-2.865-3.247-7.125-5.214-12.779-5.902c-3.363-0.381-13.028-0.573-28.996-0.573H72.307z M72.307,197.843v44.926h31.402
			c12.224,0,19.979-0.344,23.265-1.031c5.043-0.917,9.149-3.152,12.32-6.705c3.17-3.553,4.756-8.309,4.756-14.269
			c0-5.043-1.223-9.32-3.667-12.836c-2.446-3.514-5.979-6.075-10.601-7.679c-4.624-1.604-14.652-2.406-30.084-2.406H72.307z"/>
		<path style="fill:#1D1D1B;" d="M290.627,209.303l32.893,10.43c-5.043,18.337-13.428,31.957-25.156,40.857
			c-11.729,8.901-26.607,13.352-44.639,13.352c-22.311,0-40.648-7.621-55.011-22.864c-14.365-15.242-21.546-36.081-21.546-62.518
			c0-27.964,7.22-49.682,21.661-65.154c14.44-15.472,33.426-23.208,56.959-23.208c20.553,0,37.248,6.074,50.084,18.222
			c7.639,7.183,13.369,17.498,17.189,30.944l-33.578,8.022c-1.988-8.71-6.133-15.586-12.436-20.629
			c-6.303-5.043-13.965-7.564-22.979-7.564c-12.455,0-22.56,4.47-30.313,13.409c-7.756,8.939-11.633,23.419-11.633,43.436
			c0,21.242,3.82,36.371,11.461,45.384c7.639,9.017,17.572,13.524,29.798,13.524c9.014,0,16.77-2.865,23.266-8.596
			C283.139,230.62,287.801,221.606,290.627,209.303z"/>
		<path style="fill:#1D1D1B;" d="M328.329,271.077V103.063h33.007l68.765,112.2v-112.2h31.517v168.014h-34.038l-67.732-109.565
			v109.565H328.329z"/>
	</g>
	<rect x="331.591" y="306.854" style="fill:#FED966;" width="160.744" height="34.292"/>
	<rect x="10.001" y="306.854" style="fill:#9BC1E5;" width="160.744" height="34.292"/>
	<rect x="170.847" y="306.854" style="fill:#F3B083;" width="160.744" height="34.292"/>
</g>
<g id="Rectangle_Blanc">
	<rect x="-1498.618" y="435.668" width="952.551" height="268.663"/>
	<g>
		<path style="fill:#FFFFFF;" d="M-485.244,511.227v-38.904h7.851v38.904H-485.244z"/>
		<path style="fill:#FFFFFF;" d="M-472.551,511.227v-38.904h7.638l15.913,25.98v-25.98h7.294v38.904h-7.877l-15.675-25.37v25.37
			H-472.551z"/>
		<path style="fill:#FFFFFF;" d="M-427.368,511.227v-32.323h-11.537v-6.581h30.898v6.581h-11.51v32.323H-427.368z"/>
		<path style="fill:#FFFFFF;" d="M-405.656,511.227v-38.904h28.829v6.581h-20.979v8.625h19.52v6.555h-19.52v10.588h21.722v6.555
			H-405.656z"/>
		<path style="fill:#FFFFFF;" d="M-372.117,511.227v-38.904h16.523c4.155,0,7.174,0.35,9.057,1.048
			c1.883,0.699,3.39,1.942,4.522,3.729c1.131,1.787,1.697,3.831,1.697,6.13c0,2.919-0.858,5.33-2.573,7.231
			c-1.715,1.902-4.279,3.101-7.691,3.596c1.697,0.991,3.098,2.079,4.204,3.264c1.105,1.185,2.595,3.291,4.469,6.316l4.747,7.59
			h-9.389l-5.676-8.465c-2.015-3.025-3.395-4.931-4.137-5.719c-0.743-0.787-1.53-1.327-2.361-1.619
			c-0.831-0.292-2.148-0.438-3.952-0.438h-1.591v16.241H-372.117z M-364.266,488.777h5.808c3.766,0,6.118-0.159,7.055-0.478
			c0.937-0.318,1.671-0.867,2.201-1.645c0.53-0.778,0.796-1.751,0.796-2.919c0-1.309-0.35-2.366-1.048-3.171
			c-0.699-0.805-1.684-1.314-2.957-1.526c-0.637-0.088-2.546-0.133-5.729-0.133h-6.127V488.777z"/>
		<path style="fill:#FFFFFF;" d="M-300.571,511.227h-8.54l-3.395-8.837h-15.542l-3.209,8.837h-8.328l15.144-38.904h8.301
			L-300.571,511.227z M-315.026,495.835l-5.358-14.436l-5.251,14.436H-315.026z"/>
		<path style="fill:#FFFFFF;" d="M-274.245,496.923l7.612,2.415c-1.167,4.246-3.108,7.4-5.822,9.461
			c-2.714,2.061-6.157,3.092-10.331,3.092c-5.163,0-9.406-1.765-12.73-5.294c-3.324-3.529-4.986-8.355-4.986-14.476
			c0-6.475,1.671-11.504,5.013-15.087c3.342-3.583,7.735-5.374,13.182-5.374c4.756,0,8.62,1.406,11.59,4.219
			c1.768,1.663,3.094,4.051,3.978,7.165l-7.771,1.858c-0.46-2.017-1.419-3.609-2.877-4.777c-1.459-1.168-3.232-1.751-5.318-1.751
			c-2.882,0-5.22,1.035-7.015,3.105c-1.795,2.07-2.692,5.423-2.692,10.058c0,4.919,0.884,8.421,2.652,10.509
			c1.767,2.088,4.066,3.131,6.896,3.131c2.086,0,3.881-0.663,5.383-1.99S-274.9,499.772-274.245,496.923z"/>
		<path style="fill:#FFFFFF;" d="M-253.861,511.227v-32.323h-11.537v-6.581h30.898v6.581h-11.51v32.323H-253.861z"/>
		<path style="fill:#FFFFFF;" d="M-232.388,511.227v-38.904h7.851v38.904H-232.388z"/>
		<path style="fill:#FFFFFF;" d="M-209.856,511.227l-13.897-38.904h8.514l9.839,28.793l9.522-28.793h8.327l-13.924,38.904H-209.856z
			"/>
		<path style="fill:#FFFFFF;" d="M-186.261,511.227v-38.904h28.829v6.581h-20.979v8.625h19.52v6.555h-19.52v10.588h21.721v6.555
			H-186.261z"/>
	</g>
	<g>
		<path style="fill:#FFFFFF;" d="M-484.95,529.837h52.143c10.322,0,18.019,0.431,23.091,1.29c5.072,0.861,9.61,2.656,13.614,5.383
			c4.004,2.729,7.341,6.362,10.01,10.9c2.669,4.538,4.004,9.625,4.004,15.26c0,6.11-1.646,11.717-4.939,16.818
			c-3.292,5.102-7.757,8.929-13.392,11.479c7.949,2.313,14.059,6.259,18.33,11.834c4.271,5.577,6.407,12.133,6.407,19.665
			c0,5.933-1.379,11.701-4.138,17.307c-2.758,5.606-6.526,10.086-11.3,13.436c-4.776,3.352-10.664,5.414-17.663,6.184
			c-4.391,0.476-14.98,0.772-31.766,0.89h-44.402V529.837z M-458.611,551.549v30.165h17.262c10.262,0,16.64-0.148,19.131-0.445
			c4.508-0.534,8.053-2.091,10.633-4.671c2.581-2.581,3.871-5.976,3.871-10.189c0-4.033-1.112-7.31-3.336-9.833
			c-2.225-2.521-5.532-4.048-9.922-4.583c-2.611-0.296-10.115-0.445-22.512-0.445H-458.611z M-458.611,603.425v34.881h24.381
			c9.491,0,15.512-0.267,18.063-0.801c3.915-0.712,7.103-2.448,9.566-5.206c2.461-2.758,3.693-6.451,3.693-11.078
			c0-3.915-0.95-7.236-2.847-9.966c-1.899-2.728-4.642-4.716-8.231-5.962c-3.59-1.246-11.376-1.868-23.358-1.868H-458.611z"/>
		<path style="fill:#FFFFFF;" d="M-289.105,612.323l25.538,8.098c-3.915,14.237-10.425,24.812-19.532,31.722
			c-9.106,6.911-20.658,10.366-34.658,10.366c-17.323,0-31.559-5.917-42.711-17.752c-11.153-11.834-16.729-28.014-16.729-48.54
			c0-21.711,5.606-38.574,16.818-50.586c11.212-12.012,25.952-18.019,44.224-18.019c15.957,0,28.92,4.716,38.886,14.148
			c5.931,5.577,10.38,13.585,13.346,24.025l-26.07,6.229c-1.544-6.763-4.762-12.101-9.655-16.016
			c-4.893-3.915-10.842-5.873-17.841-5.873c-9.67,0-17.515,3.47-23.536,10.411c-6.022,6.941-9.032,18.183-9.032,33.724
			c0,16.492,2.966,28.238,8.898,35.237c5.931,7.001,13.643,10.5,23.135,10.5c6.998,0,13.02-2.225,18.064-6.674
			C-294.919,628.874-291.3,621.875-289.105,612.323z"/>
		<path style="fill:#FFFFFF;" d="M-259.834,660.285V529.837h25.627l53.389,87.113v-87.113h24.47v130.447h-26.427l-52.588-85.067
			v85.067H-259.834z"/>
	</g>
	<rect x="212.435" y="518.926" style="fill:#FED966;" width="160.744" height="117.39"/>
	<rect x="-109.155" y="518.926" style="fill:#9BC1E5;" width="160.744" height="117.39"/>
	<rect x="51.691" y="518.926" style="fill:#F3B083;" width="160.744" height="117.39"/>
	<g>
		<path d="M-484.075,800.308v-38.904h7.851v38.904H-484.075z"/>
		<path d="M-471.381,800.308v-38.904h7.638l15.913,25.98v-25.98h7.294v38.904h-7.877l-15.675-25.37v25.37H-471.381z"/>
		<path d="M-426.198,800.308v-32.323h-11.537v-6.581h30.898v6.581h-11.51v32.323H-426.198z"/>
		<path d="M-404.487,800.308v-38.904h28.829v6.581h-20.979v8.625h19.52v6.555h-19.52v10.588h21.722v6.555H-404.487z"/>
		<path d="M-370.948,800.308v-38.904h16.523c4.155,0,7.174,0.35,9.057,1.048c1.883,0.699,3.39,1.942,4.522,3.729
			c1.131,1.787,1.697,3.831,1.697,6.13c0,2.919-0.858,5.33-2.573,7.231c-1.715,1.902-4.279,3.101-7.691,3.596
			c1.697,0.991,3.098,2.079,4.204,3.264c1.105,1.185,2.595,3.291,4.469,6.316l4.747,7.59h-9.389l-5.676-8.465
			c-2.015-3.025-3.395-4.931-4.137-5.719c-0.743-0.787-1.53-1.327-2.361-1.619c-0.831-0.292-2.148-0.438-3.952-0.438h-1.591v16.241
			H-370.948z M-363.097,777.858h5.808c3.766,0,6.118-0.159,7.055-0.478c0.937-0.318,1.671-0.867,2.201-1.645
			c0.53-0.778,0.796-1.751,0.796-2.919c0-1.309-0.35-2.366-1.048-3.171c-0.699-0.805-1.684-1.314-2.957-1.526
			c-0.637-0.088-2.546-0.133-5.729-0.133h-6.127V777.858z"/>
		<path d="M-299.402,800.308h-8.54l-3.395-8.837h-15.542l-3.209,8.837h-8.328l15.144-38.904h8.301L-299.402,800.308z
			 M-313.857,784.917l-5.358-14.436l-5.251,14.436H-313.857z"/>
		<path d="M-273.076,786.005l7.612,2.415c-1.167,4.246-3.108,7.4-5.822,9.461c-2.714,2.061-6.157,3.092-10.331,3.092
			c-5.163,0-9.406-1.765-12.73-5.294c-3.324-3.529-4.986-8.355-4.986-14.476c0-6.475,1.671-11.504,5.013-15.087
			c3.342-3.583,7.735-5.374,13.182-5.374c4.756,0,8.62,1.406,11.59,4.219c1.768,1.663,3.094,4.052,3.978,7.165l-7.771,1.858
			c-0.46-2.017-1.419-3.609-2.877-4.777s-3.232-1.751-5.318-1.751c-2.882,0-5.22,1.035-7.015,3.105
			c-1.795,2.07-2.692,5.423-2.692,10.058c0,4.919,0.884,8.421,2.652,10.509c1.767,2.088,4.066,3.131,6.896,3.131
			c2.086,0,3.881-0.663,5.383-1.99C-274.809,790.941-273.73,788.853-273.076,786.005z"/>
		<path d="M-252.692,800.308v-32.323h-11.537v-6.581h30.898v6.581h-11.51v32.323H-252.692z"/>
		<path d="M-231.219,800.308v-38.904h7.851v38.904H-231.219z"/>
		<path d="M-208.686,800.308l-13.897-38.904h8.514l9.839,28.793l9.522-28.793h8.327l-13.924,38.904H-208.686z"/>
		<path d="M-185.092,800.308v-38.904h28.829v6.581h-20.979v8.625h19.52v6.555h-19.52v10.588h21.721v6.555H-185.092z"/>
	</g>
	<g>
		<path d="M-483.781,818.919h52.143c10.322,0,18.019,0.431,23.091,1.29c5.072,0.861,9.61,2.656,13.614,5.383
			c4.004,2.729,7.341,6.362,10.01,10.9c2.669,4.538,4.004,9.625,4.004,15.26c0,6.11-1.646,11.717-4.939,16.818
			c-3.292,5.102-7.757,8.929-13.392,11.479c7.949,2.313,14.059,6.259,18.33,11.834c4.271,5.577,6.407,12.133,6.407,19.665
			c0,5.933-1.379,11.701-4.138,17.307c-2.758,5.606-6.526,10.086-11.3,13.436c-4.776,3.352-10.664,5.414-17.663,6.184
			c-4.391,0.476-14.98,0.772-31.766,0.89h-44.402V818.919z M-457.442,840.63v30.165h17.262c10.262,0,16.64-0.148,19.131-0.445
			c4.508-0.534,8.053-2.091,10.633-4.671c2.581-2.581,3.871-5.976,3.871-10.189c0-4.033-1.112-7.31-3.337-9.833
			c-2.225-2.521-5.532-4.048-9.922-4.583c-2.611-0.296-10.115-0.445-22.512-0.445H-457.442z M-457.442,892.506v34.881h24.381
			c9.491,0,15.512-0.267,18.063-0.801c3.915-0.712,7.103-2.448,9.566-5.206c2.461-2.758,3.693-6.451,3.693-11.078
			c0-3.915-0.95-7.236-2.847-9.966c-1.899-2.728-4.642-4.716-8.231-5.962c-3.59-1.246-11.376-1.868-23.358-1.868H-457.442z"/>
		<path d="M-287.936,901.404l25.538,8.098c-3.915,14.237-10.425,24.812-19.532,31.722c-9.106,6.911-20.658,10.366-34.658,10.366
			c-17.323,0-31.559-5.917-42.711-17.752c-11.153-11.834-16.729-28.014-16.729-48.54c0-21.711,5.606-38.574,16.818-50.586
			c11.212-12.012,25.952-18.019,44.224-18.019c15.957,0,28.92,4.716,38.886,14.148c5.931,5.577,10.38,13.585,13.346,24.025
			l-26.07,6.229c-1.544-6.763-4.762-12.101-9.655-16.016c-4.893-3.915-10.842-5.873-17.841-5.873c-9.67,0-17.515,3.47-23.536,10.411
			c-6.022,6.941-9.032,18.183-9.032,33.724c0,16.492,2.966,28.238,8.898,35.237c5.931,7.001,13.643,10.5,23.135,10.5
			c6.998,0,13.02-2.225,18.064-6.674C-293.75,917.955-290.13,910.956-287.936,901.404z"/>
		<path d="M-258.664,949.366V818.919h25.627l53.389,87.113v-87.113h24.47v130.447h-26.427l-52.588-85.067v85.067H-258.664z"/>
	</g>
	<rect x="213.604" y="808.007" style="fill:#FED966;" width="160.744" height="117.39"/>
	<rect x="-107.985" y="808.007" style="fill:#9BC1E5;" width="160.744" height="117.39"/>
	<rect x="52.86" y="808.007" style="fill:#F3B083;" width="160.744" height="117.39"/>
</g>
<g id="Rectangle_Negre">
</g>
</svg>
